<svg width="24" height="24" viewBox="0 0 24 24" fill="none" xmlns="http://www.w3.org/2000/svg">
<path d="M21.9887 12.1703L22 11.9827C22 11.2204 21.4463 10.5914 20.7307 10.4991L20.5486 10.4875L7.01376 10.4887L10.9001 6.46994C11.3215 5.95889 11.3611 5.21531 10.9965 4.6596L10.875 4.49894C10.3848 3.9336 9.57289 3.84268 8.98108 4.25695L8.82554 4.38248L2.48302 10.8035C1.88993 11.3523 1.84281 12.2795 2.34284 12.8883L8.82516 19.614C9.42036 20.1686 10.3381 20.1198 10.875 19.505C11.3671 18.9414 11.3684 18.0979 10.9068 17.5341L7.08794 13.4792L20.5486 13.4779C21.2885 13.4779 21.8991 12.9075 21.9887 12.1703Z" fill="#252A31"/>
</svg>
