<svg width="22" height="22" viewBox="0 0 22 22" fill="none" xmlns="http://www.w3.org/2000/svg">
<path d="M21.3757 8.51329C21.2366 8.08301 20.8549 7.77741 20.4034 7.73672L14.2703 7.17983L11.8451 1.50341C11.6663 1.0874 11.259 0.818115 10.8066 0.818115C10.3541 0.818115 9.94682 1.0874 9.768 1.50438L7.3428 7.17983L1.20871 7.73672C0.758007 7.77839 0.377342 8.08301 0.237429 8.51329C0.097517 8.94356 0.226729 9.4155 0.567674 9.713L5.20358 13.7787L3.83656 19.8005C3.73653 20.2432 3.90838 20.7009 4.27575 20.9665C4.47322 21.1091 4.70425 21.1818 4.93722 21.1818C5.13809 21.1818 5.33734 21.1276 5.51616 21.0206L10.8066 17.8587L16.095 21.0206C16.482 21.2534 16.9698 21.2322 17.3364 20.9665C17.7039 20.7001 17.8756 20.2423 17.7756 19.8005L16.4086 13.7787L21.0445 9.71381C21.3854 9.4155 21.5156 8.94438 21.3757 8.51329Z" fill="#C2C2C2"/>
</svg>
